<svg xmlns="http://www.w3.org/2000/svg" viewBox="0 0 280.6 78.8"><defs><style>.cls-1{fill:#164194}.cls-2{fill:#fff}</style></defs><g id="Ebene_2" data-name="Ebene 2"><g id="Ebene_1-2" data-name="Ebene 1"><path class="cls-1" d="M72 25.9v3h9V53h3.6V28.9h9v-3H72zm24.6 0h18.8v3h-15.2v8.6h14.1v3h-14.1v9.4h15.3V53H96.6V25.9zm42.3 8.1c-.8-3.8-3.8-5.8-7.6-5.8-6.5 0-9.2 5.3-9.2 11 0 6.2 2.7 11.4 9.2 11.4 4.7 0 7.5-3.3 7.8-7.8h3.6c-.7 6.8-4.9 10.9-11.7 10.9-8.4 0-12.5-6.2-12.5-14.1s4.5-14.3 12.8-14.3c5.7 0 10.4 3 11.2 8.8l-3.6-.1zm8.3-8.1h3.6v11.6h14.3V25.9h3.6V53h-3.6V40.5h-14.3V53h-3.6V25.9zm27.4 0h3.8l14.3 21.9h.1V25.9h3.4V53h-3.9l-14.2-21.8h-.1V53h-3.4V25.9zm38.9 24.7c6.6 0 9.4-5.7 9.4-11.2s-2.8-11.2-9.4-11.2-9.4 5.7-9.4 11.2 2.8 11.2 9.4 11.2m0-25.4c8.6 0 13 6.8 13 14.2s-4.4 14.2-13 14.2-13-6.8-13-14.2 4.4-14.2 13-14.2m17.4.7h3.6v24h14.4V53h-18V25.9zm21.3 0h3.6V53h-3.6zm15.8 3h-9v-3h21.6v3h-9V53H268V28.9zM76.8 75.8h2.4c3.3 0 4.7-1.4 4.7-4.8s-1.4-4.8-4.7-4.8h-2.3l-.1 9.6zm-1.1-10.5h4c3.5.1 5.3 1.9 5.3 5.8s-1.8 5.7-5.3 5.7h-4zm11.7 0h8v.9h-6.9v4.2h6.4v.9h-6.4v4.5h6.9v1h-8V65.3zm11.3 5.4h4.1a2.27 2.27 0 002.5-2.1v-.1c0-1.4-.8-2.3-2.5-2.3h-4.1zm-1.1-5.4h5.3c1.9 0 3.5.9 3.5 3a2.72 2.72 0 01-2.2 2.9c1.5.2 1.9 1.2 2 2.6 0 .8 0 2.4.5 2.9h-1.2a2.89 2.89 0 01-.3-1.8c-.1-1.6-.2-3.4-2.3-3.3h-4.2v5.1h-1.1zm15.4 0h1.1l2.7 10 2.8-10h1.4l2.8 10 2.6-10h1.1l-3.1 11.5h-1.2l-2.9-10.3h-.1l-2.8 10.3h-1.2L113 65.3zm16.4 0h7.9v.9h-6.8v4.2h6.4v.9h-6.4v4.5h6.9v1h-8V65.3zm11.3 5.4h4.1a2.27 2.27 0 002.5-2.1v-.1c0-1.4-.8-2.3-2.5-2.3h-4.1zm-1.1-5.4h5.3c1.9 0 3.5.9 3.5 3a2.72 2.72 0 01-2.2 2.9c1.5.2 1.9 1.2 2 2.6 0 .8 0 2.4.5 2.9h-1.2a2.89 2.89 0 01-.3-1.8c-.1-1.6-.2-3.4-2.3-3.3h-4.2v5.1h-1.1zm11.4 0h1.1v6.2l6.6-6.2h1.5l-5.1 4.7 5.4 6.8h-1.4l-4.8-6-2.2 2v4H151V65.3zm11.6 7.7c0 2.4 1.6 3.1 3.8 3.1 1.2 0 3-.7 3-2.3 0-1.3-1.3-1.8-2.4-2.1l-2.6-.6c-1.4-.3-2.6-1-2.6-2.8 0-1.1.7-3.2 4-3.2 2.3 0 4.3 1.2 4.3 3.6H169a2.8 2.8 0 00-3-2.6h-.1c-1.5 0-2.9.6-2.9 2.3 0 1.1.8 1.5 1.7 1.8l2.8.7c1.6.4 3 1.2 3 3 0 .8-.3 3.3-4.4 3.3-2.7 0-4.7-1.2-4.6-4h1.1zm9-7.7h9.1v.9h-4v10.6h-1.1V66.2h-4v-.9zm11.4 7h4.5l-2.2-5.9zm1.7-7h1.2l4.5 11.5h-1.2l-1.4-3.6h-5.2l-1.4 3.6H180zm5.1 0h9.1v.9h-4v10.6h-1.1V66.2h-4v-.9zm9.6 0h9.1v.9h-4v10.6h-1.1V66.2h-4v-.9zm10.8 0h8v.9h-6.9v4.2h6.5v.9h-6.5v4.5h7v1h-8.1V65.3zm9.1 0h1.3l3.3 4.8 3.3-4.8h1.3l-4 5.6 4.2 5.9h-1.3l-3.5-5.1-3.6 5.1h-1.2l4.1-6-3.9-5.5zm12.1 5.6h3.8a2.28 2.28 0 002.6-2v-.4c0-1.6-1-2.4-2.6-2.4h-3.8zm-1.1-5.6h5.1a3 3 0 013.4 2.7v.6a3.12 3.12 0 01-2.9 3.3h-4.5v4.9h-1.1zm10.8 0h8v.9h-6.9v4.2h6.4v.9h-6.4v4.5h6.9v1h-8V65.3zm11.3 5.4h4.1a2.27 2.27 0 002.5-2.1v-.1c0-1.4-.8-2.3-2.5-2.3h-4.1zm-1.1-5.4h5.3c1.9 0 3.5.9 3.5 3a2.72 2.72 0 01-2.2 2.9c1.5.2 1.9 1.2 2 2.6 0 .8 0 2.4.5 2.9h-1.2a2.89 2.89 0 01-.3-1.8c-.1-1.6-.2-3.4-2.3-3.3h-4.2v5.1h-1.1V65.3zm10.3 0h9.1v.9h-4v10.6h-1.1V66.2h-4v-.9zm10.8 0h7.9v.9h-6.8v4.2h6.4v.9h-6.4v4.5h6.9v1h-8V65.3z"/><path class="cls-1" d="M277.3 33.3c.5 0 1 0 1-.6s-.4-.6-.8-.6h-.7v1.1l.5.1zm-.5 1.8h-.4v-3.3h1.3c.7 0 1.1.3 1.1.9a.82.82 0 01-.8.9l1 1.5h-.5l-.9-1.5h-.7v1.5zm-1.8-1.7a2.26 2.26 0 002.2 2.4h.2a2.35 2.35 0 002.4-2.3v-.1a2.26 2.26 0 00-2.2-2.4h-.2a2.37 2.37 0 00-2.4 2.4m5.3 0a2.78 2.78 0 01-2.7 2.8h-.1a2.9 2.9 0 01-2.9-2.9 2.82 2.82 0 012.9-2.8 3 3 0 012.8 2.9"/><path class="cls-2" d="M0 0h63v78.8H0z"/><path class="cls-1" d="M60.9 27.1L21.2 76.6h39.7V27.1zM2.1 51.7L41.8 2.2H2.1v49.5z"/><path fill="#ef7d00" d="M15.8 76.7l45.1-56.4V2.2H47.2L2.1 58.5v18.2h13.7z"/><path class="cls-2" d="M27.3 45.6l1-1.2-.1-.1a1.51 1.51 0 00-1.4-.7 2.19 2.19 0 00-1.4.8c-1 1.3-.9 2.8.3 4.4a2.79 2.79 0 001.8 1.2 1.6 1.6 0 001.4-.8 3.16 3.16 0 00.2-3.6l-.1-.1-1 1.3.1.1a1.05 1.05 0 010 1.3c-.1.2-.2.3-.4.3-.4 0-.8-.6-1-.9s-.8-1.2-.3-1.9c.1-.1.2-.2.3-.2s.5.2.5.3zm3.5 1l1-1.3-1.9-2.6a1.51 1.51 0 01-.1-1.7c.2-.2.3-.3.4-.3s.4.3.6.5l2 2.8 1-1.3-2.2-3.2a1.34 1.34 0 00-1.9-.5 1.21 1.21 0 00-.5.5 2.1 2.1 0 00-.5 1.5l-1.6-2.3-1 1.3zm3.7-4.7l1-1.3-1.9-2.6a1.51 1.51 0 01-.1-1.7c.2-.2.3-.3.4-.3s.4.3.6.5l2 2.8 1-1.3-2.3-3.1a1.38 1.38 0 00-2.4 0 2.16 2.16 0 00-.5 1.7l-.3-.4-1 1.2zM23.7 50l-1.1 1.5a1.2 1.2 0 01.1-1.5.57.57 0 011 0m-1.9-1.1c-1.5 1.9-.2 4 0 4.4a3 3 0 001.9 1.4 1.78 1.78 0 001.6-1 3.26 3.26 0 00.4-3.3l-.1-.2-1.1 1.3v.1a1.39 1.39 0 01-.2 1.1c-.2.2-.4.4-.6.4a1 1 0 01-.7-.4l2.2-2.8-.1-.1-.1-.2a2.89 2.89 0 00-2-1.4c-.4-.2-.9.3-1.2.7m17-16.9c.4.6.8 1.4.2 2.1a.86.86 0 01-.6.3c-.4 0-.7-.4-.9-.7-.4-.6-.8-1.4-.2-2.1a.86.86 0 01.6-.3 1.27 1.27 0 01.9.7m-.8-2.4a2.23 2.23 0 00-1.7.9 3.61 3.61 0 00.1 4.5 2.3 2.3 0 001.8 1.2 2.23 2.23 0 001.7-.9 3.61 3.61 0 00-.1-4.5 2 2 0 00-1.8-1.2m3.9 3l1-1.3-4.7-6.6-1.1 1.3 4.8 6.6z"/><path class="cls-2" d="M17.7 48.8l6.2-7.9-2.4-3.3L7.8 54.8l2.4 3.3 3.6-4.5 8.4 11.7 28.7-35.9-2.4-3.5L23.6 57l-5.9-8.2z"/><path class="cls-2" d="M43.5 30.5l1.1-1.3-3.4-4.6-1 1.2 3.3 4.7zm-2.7-6.6l-1-1.3-1 1.3.9 1.3 1.1-1.3zm2.2-1.6l-1.1-1.5-.6 1.9.6.9-.7.8.7.9.7-.8 2 2.7a.91.91 0 00.8.4 1.23 1.23 0 001-.5l.1-.1a1.28 1.28 0 00.4-1v-.1l-.6-.8-.1.1c-.1.1-.2.3-.3.4s-.2.2-.3.2-.1 0-.1-.1-1.5-2.1-1.8-2.5l.7-.9-.7-.9zm-2.9-1.2l.1-.2-.4-.4.1-.1.1-.1h.2l.5.1.2-.2-.5-.1h-.2c-.1 0-.1 0-.1.1a.37.37 0 00.1-.3c0-.1 0-.2-.1-.2a.37.37 0 00-.3-.1c-.1 0-.2.1-.4.3l-.3.4zm-.6-1.1l.2-.2h.2c.1 0 .1.1.1.2s-.1.2-.1.3l-.2.2-.4-.3z"/><path class="cls-2" d="M38.9 20.3a.94.94 0 011-1h.1a1 1 0 010 2 1 1 0 01-1.1-.9v-.1m1.1 1.3a1.3 1.3 0 10-1.3-1.3 1.32 1.32 0 001.3 1.3"/></g></g></svg>